<svg width="40" height="40" viewBox="0 0 40 40" fill="none" xmlns="http://www.w3.org/2000/svg">
    <g filter="url(#filter0_f)">
        <path d="M30.6668 29.8193C31.1755 29.219 30.7267 28.3497 29.94 28.3376C22.8833 28.2287 16.8899 28.3646 9.59714 28.809C8.81189 28.8568 8.40266 29.7452 8.93767 30.322C11.6103 33.2032 15.3897 35 19.5794 35C24.0077 35 27.9776 32.9927 30.6668 29.8193Z" stroke="#4C4CFF" stroke-linecap="round" stroke-linejoin="round"/>
        <path d="M7.0735 12.1598C6.67117 12.8297 7.24277 13.6145 8.01854 13.5208C16.1184 12.5428 22.2272 12.2462 30.6868 12.7494C31.47 12.796 31.9955 11.9733 31.5482 11.3287C28.8909 7.49901 24.5205 5 19.5794 5C14.2893 5 9.6533 7.86456 7.0735 12.1598Z" stroke="#4C4CFF" stroke-linecap="round" stroke-linejoin="round"/>
    </g>
    <g filter="url(#filter1_f)">
        <path d="M30.6668 29.8193C31.1755 29.219 30.7267 28.3497 29.94 28.3376C22.8833 28.2287 16.8899 28.3646 9.59714 28.809C8.81189 28.8568 8.40266 29.7452 8.93767 30.322C11.6103 33.2032 15.3897 35 19.5794 35C24.0077 35 27.9776 32.9927 30.6668 29.8193Z" stroke="#4C4CFF" stroke-linecap="round" stroke-linejoin="round"/>
        <path d="M7.0735 12.1598C6.67117 12.8297 7.24277 13.6145 8.01854 13.5208C16.1184 12.5428 22.2272 12.2462 30.6868 12.7494C31.47 12.796 31.9955 11.9733 31.5482 11.3287C28.8909 7.49901 24.5205 5 19.5794 5C14.2893 5 9.6533 7.86456 7.0735 12.1598Z" stroke="#4C4CFF" stroke-linecap="round" stroke-linejoin="round"/>
    </g>
    <path d="M30.6668 29.8193C31.1755 29.219 30.7267 28.3497 29.94 28.3376C22.8833 28.2287 16.8899 28.3646 9.59714 28.809C8.81189 28.8568 8.40266 29.7452 8.93767 30.322C11.6103 33.2032 15.3897 35 19.5794 35C24.0077 35 27.9776 32.9927 30.6668 29.8193Z" stroke="#4C4CFF" stroke-linecap="round" stroke-linejoin="round"/>
    <path d="M7.0735 12.1598C6.67117 12.8297 7.24277 13.6145 8.01854 13.5208C16.1184 12.5428 22.2272 12.2462 30.6868 12.7494C31.47 12.796 31.9955 11.9733 31.5482 11.3287C28.8909 7.49901 24.5205 5 19.5794 5C14.2893 5 9.6533 7.86456 7.0735 12.1598Z" stroke="#4C4CFF" stroke-linecap="round" stroke-linejoin="round"/>
    <path d="M30.6668 29.8193C31.1755 29.219 30.7267 28.3497 29.94 28.3376C22.8833 28.2287 16.8899 28.3646 9.59714 28.809C8.81189 28.8568 8.40266 29.7452 8.93767 30.322C11.6103 33.2032 15.3897 35 19.5794 35C24.0077 35 27.9776 32.9927 30.6668 29.8193Z" stroke="white" stroke-width="0.5" stroke-linecap="round" stroke-linejoin="round"/>
    <path d="M7.0735 12.1598C6.67117 12.8297 7.24277 13.6145 8.01854 13.5208C16.1184 12.5428 22.2272 12.2462 30.6868 12.7494C31.47 12.796 31.9955 11.9733 31.5482 11.3287C28.8909 7.49901 24.5205 5 19.5794 5C14.2893 5 9.6533 7.86456 7.0735 12.1598Z" stroke="white" stroke-width="0.5" stroke-linecap="round" stroke-linejoin="round"/>
    <g filter="url(#filter2_f)">
        <path d="M34.0743 22.3125C34.2319 21.2661 33.417 20.3644 32.3622 20.2793C23.3161 19.5501 16.1297 19.4321 6.79862 19.9169C5.74046 19.9719 4.89937 20.8523 5.02882 21.904C5.13156 22.7387 5.30136 23.552 5.53252 24.3381C5.77115 25.1496 6.55924 25.6496 7.40462 25.6202C16.2597 25.3127 23.205 25.2892 31.7978 25.5205C32.6435 25.5432 33.4275 25.037 33.6597 24.2235C33.8371 23.6023 33.9762 22.9643 34.0743 22.3125Z" stroke="#E33CD5" stroke-linecap="round" stroke-linejoin="round"/>
    </g>
    <g filter="url(#filter3_f)">
        <path d="M34.0743 22.3125C34.2319 21.2661 33.417 20.3644 32.3622 20.2793C23.3161 19.5501 16.1297 19.4321 6.79862 19.9169C5.74046 19.9719 4.89937 20.8523 5.02882 21.904C5.13156 22.7387 5.30136 23.552 5.53252 24.3381C5.77115 25.1496 6.55924 25.6496 7.40462 25.6202C16.2597 25.3127 23.205 25.2892 31.7978 25.5205C32.6435 25.5432 33.4275 25.037 33.6597 24.2235C33.8371 23.6023 33.9762 22.9643 34.0743 22.3125Z" stroke="#E33CD5" stroke-linecap="round" stroke-linejoin="round"/>
    </g>
    <path d="M34.0743 22.3125C34.2319 21.2661 33.417 20.3644 32.3622 20.2793C23.3161 19.5501 16.1297 19.4321 6.79862 19.9169C5.74046 19.9719 4.89937 20.8523 5.02882 21.904C5.13156 22.7387 5.30136 23.552 5.53252 24.3381C5.77115 25.1496 6.55924 25.6496 7.40462 25.6202C16.2597 25.3127 23.205 25.2892 31.7978 25.5205C32.6435 25.5432 33.4275 25.037 33.6597 24.2235C33.8371 23.6023 33.9762 22.9643 34.0743 22.3125Z" stroke="#E33CD5" stroke-linecap="round" stroke-linejoin="round"/>
    <path d="M34.0743 22.3125C34.2319 21.2661 33.417 20.3644 32.3622 20.2793C23.3161 19.5501 16.1297 19.4321 6.79862 19.9169C5.74046 19.9719 4.89937 20.8523 5.02882 21.904C5.13156 22.7387 5.30136 23.552 5.53252 24.3381C5.77115 25.1496 6.55924 25.6496 7.40462 25.6202C16.2597 25.3127 23.205 25.2892 31.7978 25.5205C32.6435 25.5432 33.4275 25.037 33.6597 24.2235C33.8371 23.6023 33.9762 22.9643 34.0743 22.3125Z" stroke="white" stroke-width="0.5" stroke-linecap="round" stroke-linejoin="round"/>
    <g filter="url(#filter4_f)">
        <path d="M4.91321 16.625C6.86833 15.125 8.82345 15.125 10.7786 16.625C12.7337 18.125 14.6888 18.125 16.6439 16.625C18.5991 15.125 20.5542 15.125 22.5093 16.625C24.4644 18.125 26.4196 18.125 28.3747 16.625C30.3298 15.125 32.2849 15.125 34.2401 16.625" stroke="#00CCCC" stroke-linecap="round" stroke-linejoin="round"/>
    </g>
    <g filter="url(#filter5_f)">
        <path d="M4.91321 16.625C6.86833 15.125 8.82345 15.125 10.7786 16.625C12.7337 18.125 14.6888 18.125 16.6439 16.625C18.5991 15.125 20.5542 15.125 22.5093 16.625C24.4644 18.125 26.4196 18.125 28.3747 16.625C30.3298 15.125 32.2849 15.125 34.2401 16.625" stroke="#00CCCC" stroke-linecap="round" stroke-linejoin="round"/>
    </g>
    <path d="M4.91321 16.625C6.86833 15.125 8.82345 15.125 10.7786 16.625C12.7337 18.125 14.6888 18.125 16.6439 16.625C18.5991 15.125 20.5542 15.125 22.5093 16.625C24.4644 18.125 26.4196 18.125 28.3747 16.625C30.3298 15.125 32.2849 15.125 34.2401 16.625" stroke="#00CCCC" stroke-linecap="round" stroke-linejoin="round"/>
    <path d="M4.91321 16.625C6.86833 15.125 8.82345 15.125 10.7786 16.625C12.7337 18.125 14.6888 18.125 16.6439 16.625C18.5991 15.125 20.5542 15.125 22.5093 16.625C24.4644 18.125 26.4196 18.125 28.3747 16.625C30.3298 15.125 32.2849 15.125 34.2401 16.625" stroke="white" stroke-width="0.5" stroke-linecap="round" stroke-linejoin="round"/>
    <g filter="url(#filter6_f)">
        <ellipse rx="0.736837" ry="0.559799" transform="matrix(0.881086 0.472957 0.45642 -0.889764 14.616 31.2361)" stroke="#4C4CFF"/>
        <ellipse rx="1.10147" ry="0.748885" transform="matrix(0.964427 0.264348 -0.25339 0.967364 25.9608 9.76562)" stroke="#4C4CFF"/>
        <ellipse rx="0.734315" ry="0.561663" transform="matrix(0.964428 -0.264347 -0.25339 -0.967364 24.093 31.2377)" stroke="#4C4CFF"/>
        <ellipse cx="18.4769" cy="10.25" rx="1.09975" ry="0.75" transform="rotate(180 18.4769 10.25)" stroke="#4C4CFF"/>
        <ellipse rx="1.10147" ry="0.748885" transform="matrix(0.964427 0.264349 -0.253389 0.967364 21.5618 7.51562)" stroke="#4C4CFF"/>
        <ellipse rx="0.733173" ry="0.5625" transform="matrix(1 0 0 -1 19.5766 32.5625)" stroke="#4C4CFF"/>
        <ellipse rx="1.10526" ry="0.746399" transform="matrix(0.881086 -0.472956 0.456421 0.889764 13.5594 9.18679)" stroke="#4C4CFF"/>
    </g>
    <g filter="url(#filter7_f)">
        <ellipse rx="0.736837" ry="0.559799" transform="matrix(0.881086 0.472957 0.45642 -0.889764 14.616 31.2361)" stroke="#4C4CFF"/>
        <ellipse rx="1.10147" ry="0.748885" transform="matrix(0.964427 0.264348 -0.25339 0.967364 25.9608 9.76562)" stroke="#4C4CFF"/>
        <ellipse rx="0.734315" ry="0.561663" transform="matrix(0.964428 -0.264347 -0.25339 -0.967364 24.093 31.2377)" stroke="#4C4CFF"/>
        <ellipse cx="18.4769" cy="10.25" rx="1.09975" ry="0.75" transform="rotate(180 18.4769 10.25)" stroke="#4C4CFF"/>
        <ellipse rx="1.10147" ry="0.748885" transform="matrix(0.964427 0.264349 -0.253389 0.967364 21.5618 7.51562)" stroke="#4C4CFF"/>
        <ellipse rx="0.733173" ry="0.5625" transform="matrix(1 0 0 -1 19.5766 32.5625)" stroke="#4C4CFF"/>
        <ellipse rx="1.10526" ry="0.746399" transform="matrix(0.881086 -0.472956 0.456421 0.889764 13.5594 9.18679)" stroke="#4C4CFF"/>
    </g>
    <ellipse rx="0.736837" ry="0.559799" transform="matrix(0.881086 0.472957 0.45642 -0.889764 14.616 31.2361)" stroke="#4C4CFF"/>
    <ellipse rx="1.10147" ry="0.748885" transform="matrix(0.964427 0.264348 -0.25339 0.967364 25.9608 9.76562)" stroke="#4C4CFF"/>
    <ellipse rx="0.734315" ry="0.561663" transform="matrix(0.964428 -0.264347 -0.25339 -0.967364 24.093 31.2377)" stroke="#4C4CFF"/>
    <ellipse cx="18.4769" cy="10.25" rx="1.09975" ry="0.75" transform="rotate(180 18.4769 10.25)" stroke="#4C4CFF"/>
    <ellipse rx="1.10147" ry="0.748885" transform="matrix(0.964427 0.264349 -0.253389 0.967364 21.5618 7.51562)" stroke="#4C4CFF"/>
    <ellipse rx="0.733173" ry="0.5625" transform="matrix(1 0 0 -1 19.5766 32.5625)" stroke="#4C4CFF"/>
    <ellipse rx="1.10526" ry="0.746399" transform="matrix(0.881086 -0.472956 0.456421 0.889764 13.5594 9.18679)" stroke="#4C4CFF"/>
    <ellipse rx="0.736837" ry="0.559799" transform="matrix(0.881086 0.472957 0.45642 -0.889764 14.616 31.2361)" stroke="white" stroke-width="0.5"/>
    <ellipse rx="1.10147" ry="0.748885" transform="matrix(0.964427 0.264348 -0.25339 0.967364 25.9608 9.76562)" stroke="white" stroke-width="0.5"/>
    <ellipse rx="0.734315" ry="0.561663" transform="matrix(0.964428 -0.264347 -0.25339 -0.967364 24.093 31.2377)" stroke="white" stroke-width="0.5"/>
    <ellipse cx="18.4769" cy="10.25" rx="1.09975" ry="0.75" transform="rotate(180 18.4769 10.25)" stroke="white" stroke-width="0.5"/>
    <ellipse rx="1.10147" ry="0.748885" transform="matrix(0.964427 0.264349 -0.253389 0.967364 21.5618 7.51562)" stroke="white" stroke-width="0.5"/>
    <ellipse rx="0.733173" ry="0.5625" transform="matrix(1 0 0 -1 19.5766 32.5625)" stroke="white" stroke-width="0.5"/>
    <ellipse rx="1.10526" ry="0.746399" transform="matrix(0.881086 -0.472956 0.456421 0.889764 13.5594 9.18679)" stroke="white" stroke-width="0.5"/>
    <defs>
        <filter id="filter0_f" x="2.43463" y="0.5" width="33.7848" height="39" filterUnits="userSpaceOnUse" color-interpolation-filters="sRGB">
            <feFlood flood-opacity="0" result="BackgroundImageFix"/>
            <feBlend mode="normal" in="SourceGraphic" in2="BackgroundImageFix" result="shape"/>
            <feGaussianBlur stdDeviation="2" result="effect1_foregroundBlur"/>
        </filter>
        <filter id="filter1_f" x="2.43463" y="0.5" width="33.7848" height="39" filterUnits="userSpaceOnUse" color-interpolation-filters="sRGB">
            <feFlood flood-opacity="0" result="BackgroundImageFix"/>
            <feBlend mode="normal" in="SourceGraphic" in2="BackgroundImageFix" result="shape"/>
            <feGaussianBlur stdDeviation="2" result="effect1_foregroundBlur"/>
        </filter>
        <filter id="filter2_f" x="0.51527" y="15.125" width="38.0791" height="14.9965" filterUnits="userSpaceOnUse" color-interpolation-filters="sRGB">
            <feFlood flood-opacity="0" result="BackgroundImageFix"/>
            <feBlend mode="normal" in="SourceGraphic" in2="BackgroundImageFix" result="shape"/>
            <feGaussianBlur stdDeviation="2" result="effect1_foregroundBlur"/>
        </filter>
        <filter id="filter3_f" x="0.51527" y="15.125" width="38.0791" height="14.9965" filterUnits="userSpaceOnUse" color-interpolation-filters="sRGB">
            <feFlood flood-opacity="0" result="BackgroundImageFix"/>
            <feBlend mode="normal" in="SourceGraphic" in2="BackgroundImageFix" result="shape"/>
            <feGaussianBlur stdDeviation="2" result="effect1_foregroundBlur"/>
        </filter>
        <filter id="filter4_f" x="0.413183" y="11" width="38.3269" height="11.25" filterUnits="userSpaceOnUse" color-interpolation-filters="sRGB">
            <feFlood flood-opacity="0" result="BackgroundImageFix"/>
            <feBlend mode="normal" in="SourceGraphic" in2="BackgroundImageFix" result="shape"/>
            <feGaussianBlur stdDeviation="2" result="effect1_foregroundBlur"/>
        </filter>
        <filter id="filter5_f" x="0.413183" y="11" width="38.3269" height="11.25" filterUnits="userSpaceOnUse" color-interpolation-filters="sRGB">
            <feFlood flood-opacity="0" result="BackgroundImageFix"/>
            <feBlend mode="normal" in="SourceGraphic" in2="BackgroundImageFix" result="shape"/>
            <feGaussianBlur stdDeviation="2" result="effect1_foregroundBlur"/>
        </filter>
        <filter id="filter6_f" x="8.03106" y="2.2334" width="23.5081" height="35.3916" filterUnits="userSpaceOnUse" color-interpolation-filters="sRGB">
            <feFlood flood-opacity="0" result="BackgroundImageFix"/>
            <feBlend mode="normal" in="SourceGraphic" in2="BackgroundImageFix" result="shape"/>
            <feGaussianBlur stdDeviation="2" result="effect1_foregroundBlur"/>
        </filter>
        <filter id="filter7_f" x="8.03106" y="2.2334" width="23.5081" height="35.3916" filterUnits="userSpaceOnUse" color-interpolation-filters="sRGB">
            <feFlood flood-opacity="0" result="BackgroundImageFix"/>
            <feBlend mode="normal" in="SourceGraphic" in2="BackgroundImageFix" result="shape"/>
            <feGaussianBlur stdDeviation="2" result="effect1_foregroundBlur"/>
        </filter>
    </defs>
</svg>
